<?xml version="1.0" standalone="no"?>
<!DOCTYPE svg PUBLIC "-//W3C//DTD SVG 20010904//EN"
 "http://www.w3.org/TR/2001/REC-SVG-20010904/DTD/svg10.dtd">
<svg version="1.0" xmlns="http://www.w3.org/2000/svg"
 width="300.000000pt" height="128.000000pt" viewBox="0 0 300.000000 128.000000"
 preserveAspectRatio="xMidYMid meet">
<metadata>
Created by potrace 1.10, written by Peter Selinger 2001-2011
</metadata>
<g transform="translate(0.000000,128.000000) scale(0.100000,-0.100000)"
fill="#0b1d29" stroke="none">
<path d="M211 941 c-32 -4 -50 -13 -65 -34 -19 -26 -21 -44 -25 -248 l-3 -220
49 -49 50 -50 122 0 c69 0 131 5 143 11 14 8 23 8 31 0 7 -7 60 -11 139 -11
125 0 130 1 155 26 23 23 25 31 21 85 -3 48 -2 59 10 54 7 -3 22 -5 32 -5 10
0 23 -12 29 -28 7 -16 32 -48 56 -72 49 -48 85 -58 221 -59 59 -1 76 3 99 21
l28 22 -7 190 c-8 250 -13 277 -62 327 -37 38 -40 39 -104 39 -88 0 -108 -15
-112 -81 -3 -46 -6 -52 -40 -71 l-37 -21 -26 26 c-37 37 -86 50 -151 42 -51
-6 -54 -5 -54 15 0 12 -18 39 -42 61 l-41 40 -81 -5 c-45 -3 -88 -6 -96 -7 -8
-2 -55 0 -105 3 -49 3 -110 3 -134 -1z m428 -40 c13 -8 30 -30 37 -48 15 -36
27 -40 121 -46 47 -2 69 -9 96 -30 43 -33 64 -34 108 -4 27 18 35 31 40 64 8
61 22 73 88 73 59 -1 87 -15 109 -57 17 -31 32 -181 32 -320 0 -121 0 -122
-27 -143 -26 -21 -35 -22 -128 -16 l-100 6 -40 43 c-22 24 -53 58 -68 75 -23
26 -37 32 -68 32 l-39 0 0 -55 c0 -46 -4 -60 -25 -81 -25 -25 -27 -25 -158
-20 -162 5 -139 5 -278 0 l-116 -5 -36 40 -37 41 0 199 c0 110 4 211 10 226 5
14 20 29 32 34 13 5 113 9 223 8 163 0 204 -3 224 -16z"/>
<path d="M188 891 c-23 -19 -23 -22 -23 -231 l0 -212 25 -20 c22 -18 36 -20
133 -16 108 3 109 4 138 36 24 27 29 29 29 13 0 -11 7 -27 16 -35 17 -18 85
-21 114 -6 13 7 21 7 25 0 9 -14 78 -13 93 2 8 8 12 48 12 116 0 91 2 103 17
100 9 -2 24 -16 33 -33 16 -27 21 -30 63 -27 l46 3 11 -41 c6 -23 27 -58 45
-79 35 -38 36 -38 127 -44 132 -8 138 -3 138 111 0 119 -19 311 -33 342 -10
21 -20 26 -60 28 -63 4 -77 -8 -77 -69 0 -45 -3 -50 -32 -65 -18 -9 -47 -30
-65 -46 -30 -29 -31 -29 -37 -10 -4 12 -23 35 -42 52 -34 29 -38 30 -121 29
-60 -2 -96 -8 -121 -21 -42 -21 -50 -18 -22 7 14 13 20 31 20 60 0 56 -22 75
-86 75 -54 0 -67 -6 -77 -33 -6 -17 -8 -17 -34 3 -23 16 -48 21 -130 25 -89 4
-105 2 -125 -14z m247 -46 c38 -37 37 -86 -3 -128 l-27 -29 23 -18 c13 -11 28
-34 33 -52 13 -43 2 -122 -21 -151 -17 -20 -26 -22 -123 -22 -58 0 -109 4
-114 8 -10 10 -10 374 -1 400 6 15 21 17 108 17 94 0 103 -2 125 -25z m175
-16 l0 -40 -52 3 -53 3 -3 38 -3 37 55 0 56 0 0 -41z m564 9 c26 -143 34 -383
12 -391 -7 -3 -50 -3 -95 0 -75 5 -84 8 -106 35 -32 38 -49 97 -41 142 8 44
61 100 110 116 36 12 36 12 36 71 l0 59 39 0 c36 0 39 -2 45 -32z m-303 -109
c34 -37 52 -89 35 -105 -6 -6 -25 -14 -43 -17 -27 -5 -32 -3 -37 18 -8 30 -38
47 -74 43 l-27 -3 -1 -110 -1 -110 -35 -3 c-45 -4 -48 5 -48 171 0 149 -7 140
120 145 80 3 82 2 111 -29z m-277 -76 c4 -49 9 -116 12 -150 l6 -63 -45 0
c-56 0 -57 3 -57 173 l0 127 39 0 39 0 6 -87z m-108 37 c-1 -16 -5 -30 -9 -30
-12 0 -20 28 -13 45 9 26 23 16 22 -15z"/>
<path d="M292 778 c4 -56 29 -63 58 -16 19 31 19 34 3 46 -9 6 -27 12 -40 12
-22 0 -24 -4 -21 -42z"/>
<path d="M290 590 c0 -68 1 -70 25 -70 33 0 50 36 41 84 -6 33 -29 56 -55 56
-7 0 -11 -27 -11 -70z"/>
<path d="M210 563 c0 -36 3 -63 7 -60 3 4 6 24 5 44 -2 30 4 43 25 60 l28 23
-32 0 -33 0 0 -67z"/>
<path d="M378 580 c4 -43 -8 -67 -43 -80 -18 -8 -17 -9 6 -9 33 -1 48 17 56
66 4 21 13 43 22 50 14 11 12 12 -14 13 -30 0 -30 -1 -27 -40z"/>
<path d="M1052 653 c-26 -23 -39 -85 -20 -100 7 -6 24 -13 38 -15 24 -3 25 0
28 53 4 68 -13 90 -46 62z"/>
<path d="M960 588 c0 -7 4 -19 8 -26 6 -9 12 -6 20 13 10 22 9 25 -8 25 -11 0
-20 -6 -20 -12z"/>
<path d="M1120 560 c0 -33 -4 -42 -22 -50 -22 -8 -22 -9 -2 -9 28 -1 44 18 44
51 0 18 5 28 14 28 8 0 18 5 21 10 4 6 -7 10 -24 10 -29 0 -31 -2 -31 -40z"/>
<path d="M661 548 c2 -62 2 -63 8 -17 4 26 13 54 20 63 12 14 11 16 -8 16 -19
0 -21 -5 -20 -62z"/>
<path d="M530 548 c0 -79 8 -88 14 -15 2 26 8 53 14 60 13 15 6 27 -15 27 -10
0 -13 -19 -13 -72z"/>
<path d="M1543 943 c-32 -3 -48 -11 -68 -34 l-25 -31 0 -225 0 -226 44 -43 43
-44 213 1 c213 1 213 1 238 26 22 22 24 30 19 84 -3 32 -2 59 1 59 15 0 29
-16 41 -46 15 -38 76 -99 112 -113 36 -13 489 -14 505 0 9 7 19 7 33 0 11 -6
51 -11 89 -11 60 0 71 3 91 24 22 24 23 30 19 148 -5 143 -18 181 -81 247 -55
57 -95 73 -170 70 -61 -3 -61 -2 -69 28 -4 17 -24 45 -43 62 -33 29 -41 31
-111 31 -67 0 -78 -3 -101 -26 -18 -18 -24 -33 -21 -52 l4 -27 -76 3 c-60 3
-83 -1 -113 -17 -36 -18 -41 -18 -75 -4 -27 11 -54 14 -96 9 l-59 -6 -35 40
c-18 22 -46 47 -61 54 -27 14 -177 25 -248 19z m182 -30 c39 -5 57 -15 99 -55
56 -53 51 -51 122 -48 28 1 69 -4 91 -10 34 -11 48 -10 84 4 24 9 76 17 114
19 68 2 70 3 86 34 29 58 37 63 104 63 54 0 68 -4 94 -26 17 -14 31 -36 31
-47 0 -31 41 -47 117 -47 62 0 65 -1 114 -47 72 -68 81 -90 87 -218 4 -102 3
-112 -18 -137 -19 -25 -28 -28 -85 -28 -35 0 -76 5 -91 10 -17 7 -30 7 -38 0
-8 -6 -102 -9 -240 -9 l-228 1 -32 28 c-17 16 -47 51 -66 79 -27 40 -41 51
-61 51 -24 0 -27 -5 -33 -45 -4 -25 -4 -49 -1 -55 3 -5 -5 -21 -18 -34 -23
-23 -27 -24 -219 -25 l-195 -1 -27 28 c-38 40 -46 80 -45 217 1 189 11 264 38
286 25 20 119 26 216 12z"/>
<path d="M1540 903 c-8 -3 -23 -12 -32 -21 -16 -13 -18 -37 -18 -223 l0 -208
26 -20 c46 -36 242 -27 266 12 5 8 12 5 23 -10 12 -18 26 -23 59 -23 23 0 47
5 54 12 8 8 12 48 12 116 0 91 2 103 17 100 9 -2 24 -16 33 -33 15 -27 22 -30
59 -27 l41 2 0 -44 c0 -87 76 -135 190 -122 30 4 62 14 72 23 17 16 20 15 33
-4 13 -19 25 -21 125 -21 131 -1 128 -4 125 125 -1 45 1 87 5 94 15 23 38 -36
45 -116 4 -44 12 -86 17 -92 12 -15 96 -17 118 -3 12 8 15 31 13 120 -2 129
-23 188 -83 229 -32 21 -42 23 -124 17 -54 -4 -99 -12 -113 -21 -25 -17 -32
-5 -8 15 21 18 20 93 -2 112 -21 19 -120 23 -140 7 -17 -15 -17 -89 1 -114 9
-14 11 -32 7 -60 l-8 -40 -12 42 c-6 23 -23 51 -38 62 -48 38 -174 21 -204
-28 -13 -19 -13 -19 -43 6 -29 24 -35 25 -132 21 l-103 -3 -6 32 c-8 45 -56
83 -108 84 -23 1 -67 3 -97 4 -30 2 -62 0 -70 -2z m938 -72 l3 -42 -53 3 c-50
3 -53 5 -56 31 -5 46 2 52 54 51 l49 -1 3 -42z m-728 29 c18 -10 40 -59 40
-91 0 -9 -12 -31 -26 -48 l-26 -31 26 -31 c22 -25 26 -41 26 -89 0 -109 -24
-130 -151 -130 -126 0 -119 -12 -119 210 0 103 3 195 6 204 5 13 24 16 106 16
55 0 108 -4 118 -10z m530 -90 c46 -25 84 -278 46 -309 -22 -18 -109 -25 -150
-11 -47 15 -66 44 -66 100 0 53 20 78 83 104 63 26 44 55 -23 35 -51 -16 -69
-3 -54 38 15 43 116 69 164 43z m-233 -38 c35 -35 57 -97 39 -110 -6 -5 -25
-12 -42 -15 -28 -5 -33 -3 -44 24 -13 29 -42 44 -77 37 -16 -3 -18 -15 -19
-113 l-1 -110 -33 -3 c-20 -2 -36 2 -41 10 -5 7 -9 75 -9 151 0 160 -8 150
118 155 76 3 81 1 109 -26z m669 12 c50 -24 72 -79 80 -202 l7 -102 -46 0
c-31 0 -47 4 -48 13 0 6 -4 50 -8 96 -7 70 -12 88 -31 103 -25 20 -38 22 -59
9 -10 -6 -13 -35 -12 -115 l2 -106 -46 2 -46 1 3 151 3 151 60 6 c102 10 106
9 141 -7z m-251 -44 c2 -19 6 -86 10 -147 l7 -113 -41 0 c-22 0 -42 4 -45 9
-3 5 -9 72 -12 150 l-7 142 43 -3 c41 -3 43 -4 45 -38z"/>
<path d="M1620 781 c0 -62 37 -67 61 -9 14 34 3 48 -38 48 -20 0 -23 -5 -23
-39z"/>
<path d="M1617 623 c1 -21 2 -53 2 -70 1 -26 5 -33 21 -33 47 0 62 79 23 123
-28 30 -48 22 -46 -20z"/>
<path d="M1541 543 c1 -61 3 -61 14 0 3 22 12 37 20 37 8 0 17 5 20 10 4 6 -7
10 -24 10 l-31 0 1 -57z"/>
<path d="M1710 572 c0 -35 -24 -69 -53 -75 -19 -4 -19 -4 5 -6 30 -1 58 22 58
49 0 10 12 28 26 39 l27 21 -32 0 c-27 0 -31 -3 -31 -28z"/>
<path d="M2146 594 c-9 -8 -15 -30 -15 -47 1 -23 3 -26 6 -10 2 13 16 32 31
44 23 17 35 20 78 14 33 -4 55 -2 59 4 11 19 -141 14 -159 -5z"/>
<path d="M2190 559 c-17 -30 -5 -49 30 -49 28 0 30 3 30 35 0 31 -3 35 -25 35
-14 0 -29 -8 -35 -21z"/>
<path d="M2269 525 c-3 -21 -11 -31 -29 -36 l-25 -7 27 -1 c32 -1 49 24 38 54
-7 17 -8 16 -11 -10z"/>
<path d="M1841 543 l1 -58 9 44 c4 24 14 49 20 57 9 11 7 14 -10 14 -19 0 -21
-5 -20 -57z"/>
<path d="M2718 573 c2 -32 8 -65 13 -73 5 -9 6 9 3 43 -6 49 -4 60 12 72 18
14 18 14 -7 15 -25 0 -26 -1 -21 -57z"/>
<path d="M2530 543 c0 -89 6 -93 14 -8 3 41 10 63 22 72 16 12 15 13 -9 13
-27 0 -27 0 -27 -77z"/>
<path d="M2411 548 l2 -73 7 55 c4 30 9 61 11 69 2 7 -2 16 -8 18 -10 4 -13
-14 -12 -69z"/>
</g>
</svg>
